<svg width="1870" height="1870" viewBox="0 0 1870 1870" fill="none" xmlns="http://www.w3.org/2000/svg">
<rect width="1870" height="1870" fill="#3DCE15"/>
<g clip-path="url(#clip0_170_259)">
<path d="M583.645 1135H462.452C442.303 1135 422.441 1130.18 404.5 1120.94C386.559 1111.69 371.052 1098.29 359.253 1081.83C347.454 1065.37 339.701 1046.32 336.63 1026.25C333.56 1006.18 335.26 985.669 341.592 966.391L387.987 825.122C396.371 799.499 412.57 777.197 434.273 761.398C455.976 745.599 482.075 737.11 508.848 737.14H581.732V815.403H508.848C498.409 815.391 488.232 818.701 479.769 824.861C471.307 831.022 464.991 839.718 461.723 849.709L415.272 990.978C412.802 998.497 412.138 1006.5 413.335 1014.33C414.532 1022.15 417.556 1029.58 422.157 1036C426.759 1042.42 432.808 1047.65 439.805 1051.25C446.803 1054.86 454.55 1056.74 462.408 1056.74H544.781V957.754H622.442V1095.87C622.442 1106.24 618.356 1116.19 611.081 1123.53C603.806 1130.86 593.938 1134.99 583.645 1135Z" fill="white"/>
<path d="M1093.45 741.163H1015.79V1135H1093.45V741.163Z" fill="white"/>
<path d="M817.404 858.67L908.16 1135H990.002L871.099 772.995C863.644 750.269 842.078 735 817.437 735C792.796 735 771.229 750.269 763.764 772.995L644.872 1135H726.714L817.404 858.67Z" fill="white"/>
<path d="M1291.84 858.67L1382.62 1135H1464.46L1345.56 772.995C1338.11 750.269 1316.54 735 1291.9 735C1267.26 735 1245.69 750.269 1238.23 772.995L1119.33 1135H1201.17L1291.84 858.67Z" fill="white"/>
<path d="M1472.36 851.047C1504.16 851.047 1529.94 825.069 1529.94 793.023C1529.94 760.978 1504.16 735 1472.36 735C1440.56 735 1414.78 760.978 1414.78 793.023C1414.78 825.069 1440.56 851.047 1472.36 851.047Z" fill="white"/>
</g>
<defs>
<clipPath id="clip0_170_259">
<rect width="1194.94" height="400" fill="white" transform="translate(335 735)"/>
</clipPath>
</defs>
</svg>
