<svg width="1200" height="340" viewBox="0 0 1200 340" fill="none" xmlns="http://www.w3.org/2000/svg">
<path d="M688.248 3.86438H617.026V335.512H688.248V3.86438Z" fill="#3DCE15"/>
<path d="M223.762 335.512H116.776C97.9573 335.515 79.4166 330.97 62.7333 322.263C46.0501 313.556 31.7186 300.944 20.9602 285.504C10.2018 270.064 3.33525 252.252 0.945344 233.586C-1.44456 214.919 0.713117 195.952 7.23453 178.299L43.5151 80.1579C51.8438 57.8084 66.793 38.5322 86.3664 24.9033C105.94 11.2743 129.206 3.94179 153.057 3.88481H222.027V75.1068H153.057C143.756 75.132 134.685 77.9933 127.054 83.3087C119.422 88.6241 113.593 96.1409 110.345 104.856L74.0649 202.997C71.5211 209.881 70.679 217.277 71.6102 224.557C72.5414 231.836 75.2186 238.782 79.4134 244.804C83.6081 250.826 89.1962 255.744 95.7017 259.141C102.207 262.537 109.437 264.31 116.776 264.309H188.15V187.377H259.373V299.961C259.357 309.395 255.597 318.438 248.921 325.103C242.244 331.768 233.196 335.512 223.762 335.512V335.512Z" fill="#3DCE15"/>
<path d="M435.085 107.746L519.27 335.512H595.199L483.71 33.9173C480.037 23.98 473.407 15.4065 464.714 9.35139C456.02 3.29632 445.68 0.0505829 435.085 0.0505829C424.491 0.0505829 414.151 3.29632 405.458 9.35139C396.764 15.4065 390.134 23.98 386.461 33.9173L274.962 335.562H350.901L435.085 107.746Z" fill="#3DCE15"/>
<path d="M870.189 107.746L954.373 335.512H1030.32L918.813 33.9173C915.14 23.98 908.51 15.4065 899.817 9.35139C891.123 3.29632 880.783 0.0505829 870.189 0.0505829C859.594 0.0505829 849.254 3.29632 840.561 9.35139C831.867 15.4065 825.237 23.98 821.564 33.9173L710.065 335.562H786.004L870.189 107.746Z" fill="#3DCE15"/>
<path d="M1115.16 169.688C1162.01 169.688 1200 131.702 1200 84.844C1200 37.9859 1162.01 0 1115.16 0C1068.3 0 1030.31 37.9859 1030.31 84.844C1030.31 131.702 1068.3 169.688 1115.16 169.688Z" fill="#3DCE15"/>
</svg>
