<svg width="1200" height="400" viewBox="0 0 1200 400" fill="none" xmlns="http://www.w3.org/2000/svg">
<g clip-path="url(#clip0_170_689)">
<path d="M248.645 400H127.452C107.303 400 87.4408 395.18 69.5 385.937C51.5591 376.694 36.0517 363.291 24.2527 346.83C12.4538 330.37 4.7003 311.322 1.62997 291.254C-1.44035 271.185 0.260111 250.669 6.59153 231.391L52.9871 90.1225C61.371 64.4987 77.5696 42.1969 99.2725 26.3979C120.976 10.5989 147.075 2.10954 173.848 2.14016H246.731V80.4034H173.848C163.408 80.3909 153.232 83.7009 144.769 89.8613C136.307 96.0216 129.991 104.718 126.722 114.709L80.2715 255.978C77.8013 263.497 77.1374 271.498 78.3345 279.326C79.5315 287.153 82.5554 294.582 87.1572 301.002C91.7591 307.421 97.8075 312.649 104.805 316.254C111.803 319.858 119.549 321.738 127.408 321.737H209.781V222.754H287.442V360.868C287.442 371.241 283.356 381.189 276.081 388.527C268.806 395.864 258.937 399.991 248.645 400Z" fill="#3DCE15"/>
<path d="M758.454 6.16345H680.793V400H758.454V6.16345Z" fill="#3DCE15"/>
<path d="M482.404 123.67L573.16 400H655.002L536.099 37.995C528.644 15.2694 507.078 -0.000320435 482.437 -0.000320435C457.796 -0.000320435 436.229 15.2694 428.764 37.995L309.872 400H391.714L482.404 123.67Z" fill="#3DCE15"/>
<path d="M956.843 123.67L1047.62 400H1129.46L1010.56 37.995C1003.11 15.2694 981.539 -0.000320435 956.898 -0.000320435C932.257 -0.000320435 910.69 15.2694 903.225 37.995L784.333 400H866.175L956.843 123.67Z" fill="#3DCE15"/>
<path d="M1137.36 116.047C1169.16 116.047 1194.94 90.0687 1194.94 58.0233C1194.94 25.9779 1169.16 -1.52588e-05 1137.36 -1.52588e-05C1105.56 -1.52588e-05 1079.78 25.9779 1079.78 58.0233C1079.78 90.0687 1105.56 116.047 1137.36 116.047Z" fill="#3DCE15"/>
</g>
<defs>
<clipPath id="clip0_170_689">
<rect width="1194.94" height="400" fill="white"/>
</clipPath>
</defs>
</svg>
